<svg width="32" height="32" viewBox="0 0 256 256"><path fill="#ffffff" d="M121.2 157.9a60 60 0 1 0-66.4 0a95.5 95.5 0 0 0-45.3 34.9a8 8 0 1 0 13 9.2a80.1 80.1 0 0 1 131 0a8 8 0 1 0 13-9.2a95.5 95.5 0 0 0-45.3-34.9ZM44 108a44 44 0 1 1 44 44a44 44 0 0 1-44-44Zm202.1 95.9A7.9 7.9 0 0 1 235 202a80.2 80.2 0 0 0-65.5-34a8 8 0 0 1 0-16a44 44 0 0 0 0-88a47.4 47.4 0 0 0-11.9 1.6a8 8 0 0 1-9.9-5.5a8.1 8.1 0 0 1 5.5-9.9a64 64 0 0 1 16.3-2.2a59.9 59.9 0 0 1 33.2 109.9a96.3 96.3 0 0 1 45.4 34.9a8 8 0 0 1-2 11.1Z"/></svg>